<?xml version="1.0" encoding="utf-8"?>
<!-- Generator: Adobe Illustrator 15.1.0, SVG Export Plug-In . SVG Version: 6.00 Build 0)  -->
<!DOCTYPE svg PUBLIC "-//W3C//DTD SVG 1.1//EN" "http://www.w3.org/Graphics/SVG/1.1/DTD/svg11.dtd">
<svg version="1.1" id="Layer_1" xmlns="http://www.w3.org/2000/svg" xmlns:xlink="http://www.w3.org/1999/xlink" x="0px" y="0px"
	 width="80px" height="30px" viewBox="0 0 80 30" enable-background="new 0 0 80 30" xml:space="preserve">
<text transform="matrix(1 0 0 1 5.25 8.2998)" font-family="'PlayfairDisplay-Bold'" font-size="6">t</text>
<text transform="matrix(1 0 0 1 8 9)" font-family="'LeagueGothic-Regular'" font-size="6">H</text>
<text transform="matrix(1 0 0 1 11.8999 8.5498)" font-family="'PlayfairDisplay-Bold'" font-size="10">e</text>
<text transform="matrix(0.9986 -0.0523 0.0523 0.9986 7.2505 23.25)" font-family="'PlayfairDisplay-Bold'" font-size="15">P</text>
<text transform="matrix(1 0 0 1 14 23.25)" font-family="'PlayfairDisplay-Bold'" font-size="9">u</text>
<text transform="matrix(0.9998 0.0175 -0.0175 0.9998 22.25 22.75)" font-family="'LeagueGothic-Regular'" font-size="12">n</text>
<text transform="matrix(1 0 0 1 27.2002 22.1504)" font-family="'PlayfairDisplay-Bold'" font-size="12">k</text>
<text transform="matrix(1 0 0 1 39.7002 25.5)" font-family="'PlayfairDisplay-Bold'" font-size="14">j</text>
<text transform="matrix(0.9998 -0.0175 0.0175 0.9998 51 22.0498)" font-family="'PlayfairDisplay-Bold'" font-size="10">u</text>
<text transform="matrix(1 0 0 1 68.2998 23.3496)" font-family="'PlayfairDisplay-Bold'" font-size="12">o</text>
<text transform="matrix(1 0 0 1 57.5498 23.25)" font-family="'LeagueGothic-Regular'" font-size="14">R</text>
<text transform="matrix(1 0 0 1 63.7002 23.75)" font-family="'LeagueGothic-Regular'" font-size="10">N</text>
<text transform="matrix(0.9998 0.0175 -0.0175 0.9998 44.1992 23.75)" font-family="'LeagueGothic-Regular'" font-size="16">o</text>
</svg>
