<?xml version="1.0" encoding="utf-8"?>
<!-- Generator: Adobe Illustrator 15.1.0, SVG Export Plug-In . SVG Version: 6.00 Build 0)  -->
<!DOCTYPE svg PUBLIC "-//W3C//DTD SVG 1.1//EN" "http://www.w3.org/Graphics/SVG/1.1/DTD/svg11.dtd">
<svg version="1.1" xmlns="http://www.w3.org/2000/svg" xmlns:xlink="http://www.w3.org/1999/xlink" x="0px" y="0px" width="80px"
	 height="30px" viewBox="0 0 80 30" enable-background="new 0 0 80 30" xml:space="preserve">
<g id="Layer_2">
	<rect fill="#FFFFFF" width="80" height="30"/>
</g>
<g id="Layer_3">
	<text transform="matrix(1 0 0 1 5.4165 8.2998)" fill="#444444" font-family="'PlayfairDisplay-Bold'" font-size="6">t</text>
	<text transform="matrix(1 0 0 1 8.1665 9)" fill="#444444" font-family="'LeagueGothic-Regular'" font-size="6">H</text>
	<text transform="matrix(1 0 0 1 12.0664 8.5498)" fill="#444444" font-family="'PlayfairDisplay-Bold'" font-size="10">e</text>
	
		<text transform="matrix(0.9986 -0.0523 0.0523 0.9986 7.4536 23.2207)" fill="#444444" font-family="'PlayfairDisplay-Bold'" font-size="15">P</text>
	<text transform="matrix(1 0 0 1 14.1665 23.25)" fill="#444444" font-family="'PlayfairDisplay-Bold'" font-size="9">u</text>
	
		<text transform="matrix(0.9999 0.0175 -0.0175 0.9999 22.4551 22.749)" fill="#444444" font-family="'LeagueGothic-Regular'" font-size="12">n</text>
	<text transform="matrix(1 0 0 1 27.3667 22.1504)" fill="#444444" font-family="'PlayfairDisplay-Bold'" font-size="12">k</text>
	<text transform="matrix(1 0 0 1 39.8667 25.5)" fill="#444444" font-family="'PlayfairDisplay-Bold'" font-size="14">j</text>
	
		<text transform="matrix(0.9999 -0.0175 0.0175 0.9999 51.166 22.0898)" fill="#444444" font-family="'PlayfairDisplay-Bold'" font-size="10">u</text>
	<text transform="matrix(1 0 0 1 68.4668 23.3496)" fill="#444444" font-family="'PlayfairDisplay-Bold'" font-size="12">o</text>
	<text transform="matrix(1 0 0 1 57.7168 23.25)" fill="#444444" font-family="'LeagueGothic-Regular'" font-size="14">R</text>
	<text transform="matrix(1 0 0 1 63.8672 23.75)" fill="#444444" font-family="'LeagueGothic-Regular'" font-size="10">N</text>
	
		<text transform="matrix(0.9999 0.0175 -0.0175 0.9999 44.4053 23.749)" fill="#444444" font-family="'LeagueGothic-Regular'" font-size="16">o</text>
</g>
</svg>
