<?xml version="1.0" encoding="utf-8"?>
<!-- Generator: Adobe Illustrator 15.1.0, SVG Export Plug-In . SVG Version: 6.00 Build 0)  -->
<!DOCTYPE svg PUBLIC "-//W3C//DTD SVG 1.1//EN" "http://www.w3.org/Graphics/SVG/1.1/DTD/svg11.dtd">
<svg version="1.1" xmlns="http://www.w3.org/2000/svg" xmlns:xlink="http://www.w3.org/1999/xlink" x="0px" y="0px" width="80px"
	 height="30px" viewBox="0 0 80 30" enable-background="new 0 0 80 30" xml:space="preserve">
<g id="Layer_2">
	<rect fill="#FFFFFF" width="80" height="30"/>
</g>
<g id="Layer_1">
	<text transform="matrix(1 0 0 1 5.3501 8.7998)" font-family="'PlayfairDisplay-Bold'" font-size="6">t</text>
	<text transform="matrix(1 0 0 1 8.1001 9.5)" font-family="'LeagueGothic-Regular'" font-size="6">H</text>
	<text transform="matrix(1 0 0 1 12 9.0498)" font-family="'PlayfairDisplay-Bold'" font-size="10">e</text>
	<text transform="matrix(0.9986 -0.0523 0.0523 0.9986 7.3872 23.7207)" font-family="'PlayfairDisplay-Bold'" font-size="15">P</text>
	<text transform="matrix(1 0 0 1 14.1001 23.75)" font-family="'PlayfairDisplay-Bold'" font-size="9">u</text>
	<text transform="matrix(0.9999 0.0175 -0.0175 0.9999 22.3887 23.249)" font-family="'LeagueGothic-Regular'" font-size="12">n</text>
	<text transform="matrix(1 0 0 1 27.3003 22.6504)" font-family="'PlayfairDisplay-Bold'" font-size="12">k</text>
	<text transform="matrix(1 0 0 1 39.8003 26)" font-family="'PlayfairDisplay-Bold'" font-size="14">j</text>
	<text transform="matrix(0.9999 -0.0175 0.0175 0.9999 51.0996 22.5898)" font-family="'PlayfairDisplay-Bold'" font-size="10">u</text>
	<text transform="matrix(1 0 0 1 68.4004 23.8496)" font-family="'PlayfairDisplay-Bold'" font-size="12">o</text>
	<text transform="matrix(1 0 0 1 57.6494 23.75)" font-family="'LeagueGothic-Regular'" font-size="14">R</text>
	<text transform="matrix(1 0 0 1 63.7998 24.25)" font-family="'LeagueGothic-Regular'" font-size="10">N</text>
	<text transform="matrix(0.9999 0.0175 -0.0175 0.9999 44.3389 24.249)" font-family="'LeagueGothic-Regular'" font-size="16">o</text>
</g>
</svg>
